<?xml version="1.0" encoding="UTF-8"?>
<svg width="58px" height="32px" viewBox="0 0 58 32" version="1.1" xmlns="http://www.w3.org/2000/svg" xmlns:xlink="http://www.w3.org/1999/xlink">
    <!-- Generator: Sketch 52.6 (67491) - http://www.bohemiancoding.com/sketch -->
    <title>Number-to-right Copy 4</title>
    <desc>Created with Sketch.</desc>
    <g id="Page-1" stroke="none" stroke-width="1" fill="none" fill-rule="evenodd">
        <g id="Desktop-HD-Copy" transform="translate(-133.000000, -244.000000)">
            <g id="Number-to-right" transform="translate(133.000000, 244.000000)">
                <g id="Number-Copy-3" transform="translate(29.000000, 16.000000) rotate(-90.000000) translate(-29.000000, -16.000000) translate(13.000000, -13.000000)">
                    <path d="M28.5723315,0 L3.43677285,0 C1.54440008,0 0.00910433194,1.53872956 0.00910433194,3.43533478 C0.00910433194,3.43533478 0.00594435834,52.9334733 7.5835921e-05,53.8050883 C-0.00579268649,54.6918598 0.328938804,55.5804411 1.00404459,56.2570568 C2.34251913,57.5985249 4.51274386,57.5985249 5.8512184,56.2570568 C7.18991864,54.9153624 30.3753221,31.6776504 30.9955798,31.0557793 C31.6160632,30.4341343 32,29.5754138 32,28.6271112 L32,3.43533478 C32,1.53872956 30.4647043,0 28.5723315,0" id="Fill-1" fill="#F49700"></path>
                    <text id="1" transform="translate(16.000000, 16.500000) rotate(-270.000000) translate(-16.000000, -16.500000) " font-family="SourceSansPro-Bold, Source Sans Pro" font-size="16" font-weight="bold" line-spacing="24" fill="#F4F4F4">
                        <tspan x="11.776" y="22">5</tspan>
                    </text>
                </g>
            </g>
        </g>
    </g>
</svg>